<mxfile host="65bd71144e">
    <diagram id="w17GVMZlwigviYkYIncd" name="Page-1">
        <mxGraphModel dx="1938" dy="903" grid="1" gridSize="10" guides="1" tooltips="1" connect="1" arrows="1" fold="1" page="1" pageScale="1" pageWidth="3300" pageHeight="2339" math="0" shadow="0">
            <root>
                <mxCell id="0"/>
                <mxCell id="1" parent="0"/>
                <mxCell id="11" value="Database Manager" style="shape=umlFrame;whiteSpace=wrap;html=1;width=320;height=60;boundedLbl=1;verticalAlign=middle;align=left;spacingLeft=5;fontSize=30;" parent="1" vertex="1">
                    <mxGeometry x="1010" y="190" width="1380" height="930" as="geometry"/>
                </mxCell>
                <mxCell id="211" value="&lt;i&gt;Shopdata Management&lt;/i&gt;" style="shape=umlFrame;whiteSpace=wrap;html=1;width=240;height=40;boundedLbl=1;verticalAlign=middle;align=left;spacingLeft=5;fontSize=20;spacing=2;" parent="1" vertex="1">
                    <mxGeometry x="1030" y="630" width="1340" height="470" as="geometry"/>
                </mxCell>
                <mxCell id="12" value="Shop Updater" style="shape=umlFrame;whiteSpace=wrap;html=1;width=320;height=60;boundedLbl=1;verticalAlign=middle;align=left;spacingLeft=5;fontSize=30;" parent="1" vertex="1">
                    <mxGeometry x="1020" y="1220" width="1520" height="970" as="geometry"/>
                </mxCell>
                <mxCell id="7" value="a" style="shape=umlFrame;whiteSpace=wrap;html=1;width=320;height=60;boundedLbl=1;verticalAlign=middle;align=left;spacingLeft=5;fontSize=30;" parent="1" vertex="1">
                    <mxGeometry y="190" width="970" height="1200" as="geometry"/>
                </mxCell>
                <mxCell id="10" value="Backend" style="text;html=1;strokeColor=none;fillColor=none;align=center;verticalAlign=middle;whiteSpace=wrap;rounded=0;fontSize=67;fontStyle=5" parent="1" vertex="1">
                    <mxGeometry y="5" width="300" height="70" as="geometry"/>
                </mxCell>
                <mxCell id="272" value="" style="edgeStyle=none;html=1;fontSize=15;fontColor=#FFFFFF;startArrow=classic;startFill=1;endArrow=none;endFill=0;" edge="1" parent="1" source="11" target="12">
                    <mxGeometry relative="1" as="geometry"/>
                </mxCell>
                <mxCell id="273" value="new data&lt;br style=&quot;font-size: 11px;&quot;&gt;&amp;lt;&amp;lt;send&amp;gt;&amp;gt;" style="edgeLabel;html=1;align=center;verticalAlign=middle;resizable=0;points=[];fontSize=11;fontColor=#FFFFFF;rotation=-90;labelBackgroundColor=none;" vertex="1" connectable="0" parent="272">
                    <mxGeometry x="0.6109" relative="1" as="geometry">
                        <mxPoint y="-31" as="offset"/>
                    </mxGeometry>
                </mxCell>
                <mxCell id="66" value="" style="group" parent="1" vertex="1" connectable="0">
                    <mxGeometry x="1040" y="1680" width="830" height="210" as="geometry"/>
                </mxCell>
                <mxCell id="314" style="edgeStyle=none;html=1;fontSize=16;fontColor=#FFFFFF;startArrow=none;startFill=0;endArrow=classic;endFill=1;" edge="1" parent="66" source="60" target="39">
                    <mxGeometry relative="1" as="geometry"/>
                </mxCell>
                <mxCell id="60" value="&lt;font style=&quot;font-size: 20px;&quot;&gt;&lt;i style=&quot;font-size: 20px;&quot;&gt;Scraper&lt;/i&gt;&lt;/font&gt;" style="shape=umlFrame;whiteSpace=wrap;html=1;width=100;height=40;boundedLbl=1;verticalAlign=middle;align=left;spacingLeft=5;fontSize=20;spacing=2;" parent="66" vertex="1">
                    <mxGeometry width="830" height="210" as="geometry"/>
                </mxCell>
                <mxCell id="65" value="" style="group" parent="66" vertex="1" connectable="0">
                    <mxGeometry x="20" y="60" width="790" height="130" as="geometry"/>
                </mxCell>
                <mxCell id="59" value="" style="group" parent="65" vertex="1" connectable="0">
                    <mxGeometry x="660" width="130" height="130" as="geometry"/>
                </mxCell>
                <mxCell id="57" value="" style="shape=cube;boundedLbl=1;backgroundOutline=1;darkOpacity=0.05;darkOpacity2=0.1;strokeWidth=1.2;fontSize=18;aspect=fixed;align=center;whiteSpace=wrap;html=1;" parent="59" vertex="1">
                    <mxGeometry width="131.2" height="131.2" as="geometry"/>
                </mxCell>
                <mxCell id="55" value="" style="shape=image;verticalLabelPosition=bottom;labelBackgroundColor=default;verticalAlign=top;aspect=fixed;imageAspect=0;image=https://seeklogo.com/images/K/kaufland-logo-353033943B-seeklogo.com.png;imageBackground=#FFFFFF;" parent="59" vertex="1">
                    <mxGeometry x="20.59999999999991" y="20.59999999999991" width="110" height="110" as="geometry"/>
                </mxCell>
                <mxCell id="53" value="" style="group" parent="65" vertex="1" connectable="0">
                    <mxGeometry x="540" width="130" height="130" as="geometry"/>
                </mxCell>
                <mxCell id="40" value="" style="shape=cube;boundedLbl=1;backgroundOutline=1;darkOpacity=0.05;darkOpacity2=0.1;strokeWidth=1.2;fontSize=18;aspect=fixed;align=center;whiteSpace=wrap;html=1;" parent="53" vertex="1">
                    <mxGeometry width="131.2" height="131.2" as="geometry"/>
                </mxCell>
                <mxCell id="51" value="" style="shape=image;imageAspect=0;aspect=fixed;verticalLabelPosition=bottom;verticalAlign=top;sketch=0;strokeWidth=1.2;fontSize=18;html=1;image=https://api.business.stuzubi.de/api/v1/client/file/display/652e49dd96ced43172fc93c6/600;" parent="53" vertex="1">
                    <mxGeometry x="20.59999999999991" y="20.59999999999991" width="110" height="110" as="geometry"/>
                </mxCell>
                <mxCell id="46" value="" style="group" parent="65" vertex="1" connectable="0">
                    <mxGeometry x="440" width="110" height="130" as="geometry"/>
                </mxCell>
                <mxCell id="44" value="" style="shape=cube;boundedLbl=1;backgroundOutline=1;darkOpacity=0.05;darkOpacity2=0.1;strokeWidth=1.2;fontSize=18;align=center;whiteSpace=wrap;html=1;" parent="46" vertex="1">
                    <mxGeometry width="112.4" height="131.2" as="geometry"/>
                </mxCell>
                <mxCell id="42" value="" style="shape=image;verticalLabelPosition=bottom;labelBackgroundColor=default;verticalAlign=top;imageAspect=0;image=https://upload.wikimedia.org/wikipedia/commons/thumb/e/e7/Logo_Edeka.svg/847px-Logo_Edeka.svg.png;aspect=fixed;" parent="46" vertex="1">
                    <mxGeometry x="20.5" y="20.5300000000002" width="91.4" height="110.26" as="geometry"/>
                </mxCell>
                <mxCell id="41" value="" style="group" parent="65" vertex="1" connectable="0">
                    <mxGeometry x="320" width="130" height="130" as="geometry"/>
                </mxCell>
                <mxCell id="36" value="" style="shape=cube;boundedLbl=1;backgroundOutline=1;darkOpacity=0.05;darkOpacity2=0.1;strokeWidth=1.2;fontSize=18;aspect=fixed;align=center;whiteSpace=wrap;html=1;" parent="41" vertex="1">
                    <mxGeometry width="131.2" height="131.2" as="geometry"/>
                </mxCell>
                <mxCell id="39" value="" style="shape=image;verticalLabelPosition=bottom;labelBackgroundColor=default;verticalAlign=top;aspect=fixed;imageAspect=0;image=data:image/png,iVBORw0KGgoAAAANSUhEUgAAAOEAAADhCAMAAAAJbSJIAAAAqFBMVEXNFBT////LAAD/0gDJAADNDw/MCwvOHR3uwsLSOzvtv7/NERHRMzP++fn88vLjk5PqtLTJABXy0NDfgYHTRUX/2gDkmprgiYn66+vVTk7xy8vOGBjz1NTWVVXUSkrYYGDoqan34uLcdXXQLCzoqqrbbm7dfHz23d3moqLPJyfaaGj8yQP5vwXrlQvpjgzlgg3TOhLdZhDzrwjQJxPaWBDunwrWRxL7xATlD0WPAAAG8klEQVR4nO2aaXPiOBCGjZDNTSCEIw5HIARIMjuTTWZm//8/W0u2Qd1qC6dqq3Zr631qvozcyGp3qw8pUQQAAAAAAAAAAAAAAAAAAAAAAAAAAAAAAAAAAAAAAAAAAAAAAAAAAAAAAAAAAAAAAACA/xGJ0lonjN6/vap/kOR+s8q5N6yzf+t1X2mlkrOMChF7Ape5veEKQR16QeUyappBDxoSg+Wsr4vJ1a5dTdqPjUD3TPumXFOydod32bCauz+dl4J6k1bP/1pKqZkzXUbaqqViT4kKWo4bHdupu9UyjUb2KZlAHBdLmrujVsMl/2kueHJHt3T+bqFh0mEvHilJIY/kPrT61LqqOgZEFtoTOJW2H7mj/WwqPSSCpRFV2x3d0RcMdWHolI4PanqpmoQ0bAxfdKUj59wqX6B4t7olg77DLIrFqy0ZZG94sgFBc1O81jNhpPZBDRuDJI5bIYG9iuIHNjbJX04stlCCwxSrJIqn+pYK5bNp5kiprqdgpJjtPY5abULPs/d7ArltqMVSJTjM0grGfXfsxKXsRlSv7KdRXFNDvbiiYRYh5qHHqyRSN3zQ2oZazGxO9cgF7+w+f3aHDor5st2IfJ3zmj7KHERkoUehxyaUegLWNtQWByU5TNvaZ+YOrRPF3DTbiOpAh7Z1fTRK7q4pmL3gNvDQfGCWAwydhFvMWEv5DvMQ82yketxNM3uxIGznr2lCGpr3m9fXOV/vhK5rQLChlL2+ke8dajETXwWHeVQs2WSfjIfcruIb5bG2j7Jc29iYYkizT0h9cKYJQg6w9GJqMRN8RIfJNCfpwXwy5qZDrWg6GtYt2CKeaxsvNkBpWqJsyf923udLVsLCs8BCFLcL3wmCc0Wz0V6Iua0Z/f+mvglprm008v2rpCWX+DtAjrWKVll24SdBbsiy0VzwCil91IXWD9v8p8lTQEPt1f1y0TCnFjNpmzlMwTNNNisbhkPBraHqpkKjC8m1eeyO/AzuMNiPHJ5V5XIWmlhslXgOU3Ck2chusWAtefiKCWmuLUtmP78FXyaEUqsTsZhZOC84C/pu8B4I5RBlWTsVWl3oFs6jiOJtSjUmyVWtJmU5gBVnF0buF1oWH7naTV9qp0I7EY2aHdPa63WolaDY4mxdQ9AsnDmMTNH0Vbvp7Cs+6u2Mu9VqM+GVVaA5XNhteKgWIAtnDiNTHBBUuuniSz5auTMIUogvSK2GAYEzJgeEjwoKylRX5ab3XzNh/HL9lTMxxOfY4ulq/1UunBRnVTuhVZ6AyG5a8+TijNd0+QxD7ZXtTUlxdqz4HqbAJg6Tys4/KJ1QdtO6JxcXDb3GzqMfcuR72925I2057JiFs+JMDjvHs41EN33OH49z6mh4NfGtWOoYutgvSouzk95WLZwVZ/Lhz6Ugk9z0Nrfw+M+P5nT69uv9uo7BQ7SMQUexavmB9BW2/CACBzmy2maKFmdyZL3kAslNja9H489v06ZhOv3jqorBQzTbl/FI6W90utK7RJzT5ADqMEksbjTnAM130/zk4rN5ZvpxRcU4DunXvrNNKwkdW0FDWpzJWe+VnwZnG1PcIk/OVQL3hvzkYvzWdFT8HlaxuktatCfFvQWtCbrsgoELZMWZaJunmDlMtjHFDsb5gooHLdu3jX9Mm66Kn2ENaWM379xZOi3n2oOuN70hGLfxG3TBNtnX7xHBkXgu5fpIT7GCfq88E141IltLRxVXa077FWwVTbUZEwGzisQvsM3CNXEYuzF9F2o711HsQxUnF5/EhM3mt7CGdC9L5UK4Ws4UokXDRO4X24o7jI0ofmY5XZIFL0aKcu4n07AZ1JA2dgtRw2C1bM67aQ6wJYBnG5MD6EmALc78zHI+BIoT9qRdpMIvacgyTipqGKyWs5qGn3VGkm123vlZvl4vs5wPgTQ/0ixPLt6/4qXsnkQ8gwzXBOa8m/e5km06/GKtiCieh5wvQ/nh1qR8MqYKhpM+q4smkobB9mrIb96WZevDb9u4w3TlLrDcKN5l6PHcFY6/02zxHlCQ35PcC6cD4Yu1Jb9YK3sbZht7sUayW1mcsWhebhSvn3EKAWLE6a9wKKX5SGpMwhdrI36xVt7gx/4Op577XArSZPRYcRJ2ctxr/PtixGk4VzBfGkjHA+FQesND6fksmq7x0asD+qVNaPzJN4qXoYZkaePfb9O6ZelLy+FBOmbttUL0jBE6DpffPbjDuWDfIbkIusMP1o3iDqPFljb+8dc04+Pn1dYiJogivTiAncP9OyPnd96fH1W8i7yg2CdkTlpjFSqOo/f3ei0wAAAAAAAAAAAAAAAAAAAAAAAAAAAAAAAAAAAAAAAAAAAAAAAAAAAAAAAAAAAAAAAAAMB/hL8B8lBpgJc2gFwAAAAASUVORK5CYII=;" parent="41" vertex="1">
                    <mxGeometry x="20.59999999999991" y="20.59999999999991" width="110" height="110" as="geometry"/>
                </mxCell>
                <mxCell id="35" value="" style="group" parent="65" vertex="1" connectable="0">
                    <mxGeometry x="220" width="110" height="130" as="geometry"/>
                </mxCell>
                <mxCell id="33" value="" style="shape=cube;boundedLbl=1;backgroundOutline=1;darkOpacity=0.05;darkOpacity2=0.1;strokeWidth=1.2;fontSize=18;align=center;whiteSpace=wrap;html=1;" parent="35" vertex="1">
                    <mxGeometry width="112.4" height="131.2" as="geometry"/>
                </mxCell>
                <mxCell id="31" value="" style="shape=image;verticalLabelPosition=bottom;labelBackgroundColor=default;verticalAlign=top;imageAspect=0;image=https://upload.wikimedia.org/wikipedia/commons/2/20/ALDI_Nord_Logo_2015.png;" parent="35" vertex="1">
                    <mxGeometry x="20.5" y="20.5300000000002" width="91.4" height="110.26" as="geometry"/>
                </mxCell>
                <mxCell id="30" value="" style="group" parent="65" vertex="1" connectable="0">
                    <mxGeometry x="120" width="110" height="130" as="geometry"/>
                </mxCell>
                <mxCell id="21" value="" style="shape=cube;boundedLbl=1;backgroundOutline=1;darkOpacity=0.05;darkOpacity2=0.1;strokeWidth=1.2;fontSize=18;align=center;whiteSpace=wrap;html=1;" parent="30" vertex="1">
                    <mxGeometry width="112.4" height="131.2" as="geometry"/>
                </mxCell>
                <mxCell id="24" value="" style="shape=image;verticalLabelPosition=bottom;labelBackgroundColor=default;verticalAlign=top;aspect=fixed;imageAspect=0;image=https://upload.wikimedia.org/wikipedia/commons/thumb/e/e5/Aldi_S%C3%BCd_2017_logo.svg/800px-Aldi_S%C3%BCd_2017_logo.svg.png;" parent="30" vertex="1">
                    <mxGeometry x="20.5" y="20.5300000000002" width="91.4" height="110.26" as="geometry"/>
                </mxCell>
                <mxCell id="23" value="" style="group;aspect=fixed;" parent="65" vertex="1" connectable="0">
                    <mxGeometry width="130" height="130" as="geometry"/>
                </mxCell>
                <mxCell id="19" value="" style="shape=cube;whiteSpace=wrap;html=1;boundedLbl=1;backgroundOutline=1;darkOpacity=0.05;darkOpacity2=0.1;strokeWidth=1.2;fontSize=30;aspect=fixed;" parent="23" vertex="1">
                    <mxGeometry width="131.2" height="131.2" as="geometry"/>
                </mxCell>
                <mxCell id="17" value="" style="shape=image;verticalLabelPosition=bottom;labelBackgroundColor=default;verticalAlign=top;imageAspect=0;image=https://upload.wikimedia.org/wikipedia/commons/thumb/0/08/Rewe_Logo.png/800px-Rewe_Logo.png;aspect=fixed;" parent="23" vertex="1">
                    <mxGeometry x="20.59999999999991" y="20.59999999999991" width="110" height="110" as="geometry"/>
                </mxCell>
                <mxCell id="91" value="" style="group" parent="1" vertex="1" connectable="0">
                    <mxGeometry x="2260" y="1680" width="250" height="210" as="geometry"/>
                </mxCell>
                <mxCell id="68" value="&lt;font style=&quot;font-size: 20px;&quot;&gt;&lt;i style=&quot;font-size: 20px;&quot;&gt;OCR_AI-R&lt;/i&gt;&lt;/font&gt;&lt;i&gt;ecognition&lt;/i&gt;" style="shape=umlFrame;whiteSpace=wrap;html=1;width=210;height=40;boundedLbl=1;verticalAlign=middle;align=left;spacingLeft=5;fontSize=20;spacing=2;" parent="91" vertex="1">
                    <mxGeometry width="250" height="210" as="geometry"/>
                </mxCell>
                <mxCell id="38" value="" style="group" parent="91" vertex="1" connectable="0">
                    <mxGeometry x="60" y="60" width="130" height="130" as="geometry"/>
                </mxCell>
                <mxCell id="29" value="" style="shape=cube;boundedLbl=1;backgroundOutline=1;darkOpacity=0.05;darkOpacity2=0.1;strokeWidth=1.2;fontSize=18;aspect=fixed;align=center;whiteSpace=wrap;html=1;" parent="38" vertex="1">
                    <mxGeometry width="131.2" height="131.2" as="geometry"/>
                </mxCell>
                <mxCell id="37" value="" style="shape=image;verticalLabelPosition=bottom;labelBackgroundColor=default;verticalAlign=top;aspect=fixed;imageAspect=0;image=https://upload.wikimedia.org/wikipedia/commons/thumb/9/91/Lidl-Logo.svg/2048px-Lidl-Logo.svg.png;" parent="38" vertex="1">
                    <mxGeometry x="20.59999999999991" y="20.59999999999991" width="110" height="110" as="geometry"/>
                </mxCell>
                <mxCell id="105" value="" style="group" parent="1" vertex="1" connectable="0">
                    <mxGeometry x="1960" y="1680" width="170" height="240" as="geometry"/>
                </mxCell>
                <mxCell id="102" value="&lt;img alt=&quot;SQLite&amp;quot; Icon - Download for free – Iconduck&quot; src=&quot;https://static-00.iconduck.com/assets.00/sqlite-icon-2048x909-7nkrc3bm.png&quot;&gt;" style="shape=cylinder3;whiteSpace=wrap;html=1;boundedLbl=1;backgroundOutline=1;size=15;sketch=0;strokeWidth=1.2;fontSize=20;spacing=10;" parent="105" vertex="1">
                    <mxGeometry width="170" height="210" as="geometry"/>
                </mxCell>
                <mxCell id="104" value="Processing Database" style="text;html=1;strokeColor=none;fillColor=none;align=center;verticalAlign=middle;whiteSpace=wrap;rounded=0;sketch=0;strokeWidth=1.2;fontSize=16;" parent="105" vertex="1">
                    <mxGeometry y="210" width="170" height="30" as="geometry"/>
                </mxCell>
                <mxCell id="131" value="" style="group" parent="1" vertex="1" connectable="0">
                    <mxGeometry x="1040" y="1300" width="720" height="341" as="geometry"/>
                </mxCell>
                <mxCell id="103" value="&lt;i&gt;Main&lt;/i&gt;" style="shape=umlFrame;whiteSpace=wrap;html=1;width=80;height=41;boundedLbl=1;verticalAlign=middle;align=left;spacingLeft=5;fontSize=20;spacing=2;" parent="131" vertex="1">
                    <mxGeometry width="720" height="341" as="geometry"/>
                </mxCell>
                <mxCell id="109" value="Create tmp database" style="rounded=1;whiteSpace=wrap;html=1;sketch=0;strokeWidth=1.2;fontSize=16;" parent="131" vertex="1">
                    <mxGeometry x="20" y="61" width="170" height="60" as="geometry"/>
                </mxCell>
                <mxCell id="110" value="Parallel execute Scraper" style="rounded=1;whiteSpace=wrap;html=1;sketch=0;strokeWidth=1.2;fontSize=16;" parent="131" vertex="1">
                    <mxGeometry x="230" y="61" width="160" height="60" as="geometry"/>
                </mxCell>
                <mxCell id="112" value="" style="edgeStyle=none;html=1;fontSize=16;" parent="131" source="109" target="110" edge="1">
                    <mxGeometry relative="1" as="geometry"/>
                </mxCell>
                <mxCell id="111" value="Parallel / Sequentiall execute&amp;nbsp;&lt;font style=&quot;font-size: 16px;&quot;&gt;&lt;i&gt;&lt;font style=&quot;text-align: left; font-size: 16px;&quot;&gt;OCR_AI-R&lt;/font&gt;&lt;span style=&quot;text-align: left;&quot;&gt;ecognition&lt;/span&gt;&lt;/i&gt;&lt;/font&gt;" style="rounded=1;whiteSpace=wrap;html=1;sketch=0;strokeWidth=1.2;fontSize=16;" parent="131" vertex="1">
                    <mxGeometry x="430" y="61" width="240" height="60" as="geometry"/>
                </mxCell>
                <mxCell id="113" value="" style="edgeStyle=none;html=1;fontSize=16;" parent="131" source="110" target="111" edge="1">
                    <mxGeometry relative="1" as="geometry"/>
                </mxCell>
                <mxCell id="114" value="Save Product Data to Database" style="rounded=1;whiteSpace=wrap;html=1;sketch=0;strokeWidth=1.2;fontSize=16;" parent="131" vertex="1">
                    <mxGeometry x="295" y="161" width="260" height="60" as="geometry"/>
                </mxCell>
                <mxCell id="115" value="" style="edgeStyle=none;html=1;fontSize=16;entryX=0.25;entryY=0;entryDx=0;entryDy=0;" parent="131" source="110" target="114" edge="1">
                    <mxGeometry relative="1" as="geometry"/>
                </mxCell>
                <mxCell id="124" value="save" style="edgeLabel;html=1;align=center;verticalAlign=middle;resizable=0;points=[];fontSize=16;" parent="115" vertex="1" connectable="0">
                    <mxGeometry x="0.3813" y="1" relative="1" as="geometry">
                        <mxPoint x="18" y="-13" as="offset"/>
                    </mxGeometry>
                </mxCell>
                <mxCell id="116" value="" style="edgeStyle=none;html=1;fontSize=16;entryX=0.75;entryY=0;entryDx=0;entryDy=0;" parent="131" source="111" target="114" edge="1">
                    <mxGeometry relative="1" as="geometry"/>
                </mxCell>
                <mxCell id="125" value="save" style="edgeLabel;html=1;align=center;verticalAlign=middle;resizable=0;points=[];fontSize=16;" parent="116" vertex="1" connectable="0">
                    <mxGeometry x="-0.2432" y="1" relative="1" as="geometry">
                        <mxPoint x="-32" y="-2" as="offset"/>
                    </mxGeometry>
                </mxCell>
                <mxCell id="122" value="" style="edgeStyle=orthogonalEdgeStyle;html=1;fontSize=16;" parent="131" source="118" target="114" edge="1">
                    <mxGeometry relative="1" as="geometry"/>
                </mxCell>
                <mxCell id="123" value="use / save" style="edgeLabel;html=1;align=center;verticalAlign=middle;resizable=0;points=[];fontSize=16;" parent="122" vertex="1" connectable="0">
                    <mxGeometry x="-0.2315" y="-1" relative="1" as="geometry">
                        <mxPoint x="-17" as="offset"/>
                    </mxGeometry>
                </mxCell>
                <mxCell id="118" value="&lt;i style=&quot;text-align: left;&quot;&gt;&lt;font style=&quot;font-size: 16px;&quot;&gt;Product-Data_Combinder&lt;/font&gt;&lt;/i&gt;" style="rounded=1;whiteSpace=wrap;html=1;sketch=0;strokeWidth=1.2;fontSize=16;" parent="131" vertex="1">
                    <mxGeometry x="430" y="261" width="240" height="60" as="geometry"/>
                </mxCell>
                <mxCell id="119" style="edgeStyle=orthogonalEdgeStyle;html=1;exitX=1;exitY=0.5;exitDx=0;exitDy=0;entryX=1;entryY=0.5;entryDx=0;entryDy=0;fontSize=16;" parent="131" source="111" target="118" edge="1">
                    <mxGeometry relative="1" as="geometry">
                        <Array as="points">
                            <mxPoint x="700" y="91"/>
                            <mxPoint x="700" y="291"/>
                        </Array>
                    </mxGeometry>
                </mxCell>
                <mxCell id="120" value="Send data to main database" style="rounded=1;whiteSpace=wrap;html=1;sketch=0;strokeWidth=1.2;fontSize=16;" parent="131" vertex="1">
                    <mxGeometry x="150" y="261" width="240" height="60" as="geometry"/>
                </mxCell>
                <mxCell id="121" value="" style="edgeStyle=orthogonalEdgeStyle;html=1;fontSize=16;" parent="131" source="118" target="120" edge="1">
                    <mxGeometry relative="1" as="geometry"/>
                </mxCell>
                <mxCell id="126" value="Create tmp database" style="rounded=1;whiteSpace=wrap;html=1;sketch=0;strokeWidth=1.2;fontSize=16;" parent="131" vertex="1">
                    <mxGeometry x="20" y="61" width="170" height="60" as="geometry"/>
                </mxCell>
                <mxCell id="127" value="Parallel execute Scraper" style="rounded=1;whiteSpace=wrap;html=1;sketch=0;strokeWidth=1.2;fontSize=16;" parent="131" vertex="1">
                    <mxGeometry x="230" y="61" width="160" height="60" as="geometry"/>
                </mxCell>
                <mxCell id="128" value="Parallel / Sequentiall execute&amp;nbsp;&lt;font style=&quot;font-size: 16px;&quot;&gt;&lt;i&gt;&lt;font style=&quot;text-align: left; font-size: 16px;&quot;&gt;OCR_AI-R&lt;/font&gt;&lt;span style=&quot;text-align: left;&quot;&gt;ecognition&lt;/span&gt;&lt;/i&gt;&lt;/font&gt;" style="rounded=1;whiteSpace=wrap;html=1;sketch=0;strokeWidth=1.2;fontSize=16;" parent="131" vertex="1">
                    <mxGeometry x="430" y="61" width="240" height="60" as="geometry"/>
                </mxCell>
                <mxCell id="129" value="Save Product Data to Database" style="rounded=1;whiteSpace=wrap;html=1;sketch=0;strokeWidth=1.2;fontSize=16;" parent="131" vertex="1">
                    <mxGeometry x="295" y="161" width="260" height="60" as="geometry"/>
                </mxCell>
                <mxCell id="130" value="&lt;i style=&quot;text-align: left;&quot;&gt;&lt;font style=&quot;font-size: 16px;&quot;&gt;Product-Data_Combinder&lt;/font&gt;&lt;/i&gt;" style="rounded=1;whiteSpace=wrap;html=1;sketch=0;strokeWidth=1.2;fontSize=16;" parent="131" vertex="1">
                    <mxGeometry x="430" y="261" width="240" height="60" as="geometry"/>
                </mxCell>
                <mxCell id="132" value="" style="edgeStyle=orthogonalEdgeStyle;html=1;fontSize=16;" parent="1" source="102" target="94" edge="1">
                    <mxGeometry relative="1" as="geometry"/>
                </mxCell>
                <mxCell id="133" value="use / save" style="edgeLabel;html=1;align=center;verticalAlign=middle;resizable=0;points=[];fontSize=16;" parent="132" vertex="1" connectable="0">
                    <mxGeometry x="0.1569" y="2" relative="1" as="geometry">
                        <mxPoint x="-11" as="offset"/>
                    </mxGeometry>
                </mxCell>
                <mxCell id="134" value="" style="endArrow=classic;html=1;fontSize=16;entryX=1;entryY=0.5;entryDx=0;entryDy=0;entryPerimeter=0;" parent="1" target="102" edge="1">
                    <mxGeometry width="50" height="50" relative="1" as="geometry">
                        <mxPoint x="2260" y="1785" as="sourcePoint"/>
                        <mxPoint x="2210" y="1760" as="targetPoint"/>
                    </mxGeometry>
                </mxCell>
                <mxCell id="135" value="save" style="edgeLabel;html=1;align=center;verticalAlign=middle;resizable=0;points=[];fontSize=16;" parent="134" vertex="1" connectable="0">
                    <mxGeometry x="-0.2064" relative="1" as="geometry">
                        <mxPoint x="-8" y="-2" as="offset"/>
                    </mxGeometry>
                </mxCell>
                <mxCell id="136" value="" style="endArrow=none;html=1;fontSize=16;entryX=1.001;entryY=0.498;entryDx=0;entryDy=0;entryPerimeter=0;exitX=0;exitY=0.5;exitDx=0;exitDy=0;exitPerimeter=0;endFill=0;startArrow=classic;startFill=1;" parent="1" source="102" target="60" edge="1">
                    <mxGeometry width="50" height="50" relative="1" as="geometry">
                        <mxPoint x="1990" y="1784.77" as="sourcePoint"/>
                        <mxPoint x="1860" y="1784.77" as="targetPoint"/>
                    </mxGeometry>
                </mxCell>
                <mxCell id="137" value="save" style="edgeLabel;html=1;align=center;verticalAlign=middle;resizable=0;points=[];fontSize=16;" parent="136" vertex="1" connectable="0">
                    <mxGeometry x="-0.2064" relative="1" as="geometry">
                        <mxPoint x="-8" y="-2" as="offset"/>
                    </mxGeometry>
                </mxCell>
                <mxCell id="201" value="&lt;i&gt;Registration&lt;/i&gt;" style="shape=umlFrame;whiteSpace=wrap;html=1;width=120;height=40;boundedLbl=1;verticalAlign=middle;align=left;spacingLeft=5;fontSize=20;spacing=2;" parent="1" vertex="1">
                    <mxGeometry x="20" y="270" width="420" height="340" as="geometry"/>
                </mxCell>
                <mxCell id="203" value="&lt;i&gt;Security&lt;/i&gt;" style="shape=umlFrame;whiteSpace=wrap;html=1;width=120;height=40;boundedLbl=1;verticalAlign=middle;align=left;spacingLeft=5;fontSize=20;spacing=2;" parent="1" vertex="1">
                    <mxGeometry x="480" y="800" width="470" height="340" as="geometry"/>
                </mxCell>
                <mxCell id="205" value="Feedback System" style="shape=umlFrame;whiteSpace=wrap;html=1;width=320;height=60;boundedLbl=1;verticalAlign=middle;align=left;spacingLeft=5;fontSize=30;fillColor=#60a917;fontColor=#ffffff;strokeColor=#2D7600;" parent="1" vertex="1">
                    <mxGeometry y="1430" width="970" height="440" as="geometry"/>
                </mxCell>
                <mxCell id="206" value="&lt;i&gt;Change&lt;/i&gt;" style="shape=umlFrame;whiteSpace=wrap;html=1;width=90;height=40;boundedLbl=1;verticalAlign=middle;align=left;spacingLeft=5;fontSize=20;spacing=2;" parent="1" vertex="1">
                    <mxGeometry x="20" y="650" width="420" height="340" as="geometry"/>
                </mxCell>
                <mxCell id="207" value="&lt;i&gt;Login&lt;/i&gt;" style="shape=umlFrame;whiteSpace=wrap;html=1;width=90;height=40;boundedLbl=1;verticalAlign=middle;align=left;spacingLeft=5;fontSize=20;spacing=2;" parent="1" vertex="1">
                    <mxGeometry x="480" y="270" width="470" height="490" as="geometry"/>
                </mxCell>
                <mxCell id="208" value="&lt;i&gt;Delete&lt;/i&gt;" style="shape=umlFrame;whiteSpace=wrap;html=1;width=90;height=40;boundedLbl=1;verticalAlign=middle;align=left;spacingLeft=5;fontSize=20;spacing=2;" parent="1" vertex="1">
                    <mxGeometry x="20" y="1030" width="420" height="340" as="geometry"/>
                </mxCell>
                <mxCell id="209" value="&lt;i&gt;Backup&lt;/i&gt;" style="shape=umlFrame;whiteSpace=wrap;html=1;width=90;height=40;boundedLbl=1;verticalAlign=middle;align=left;spacingLeft=5;fontSize=20;spacing=2;" parent="1" vertex="1">
                    <mxGeometry x="1950" y="270" width="420" height="340" as="geometry"/>
                </mxCell>
                <mxCell id="210" value="&lt;i&gt;Trend analysis (Management)&lt;/i&gt;" style="shape=umlFrame;whiteSpace=wrap;html=1;width=340;height=40;boundedLbl=1;verticalAlign=middle;align=left;spacingLeft=5;fontSize=20;spacing=2;" parent="1" vertex="1">
                    <mxGeometry x="1490" y="270" width="420" height="340" as="geometry"/>
                </mxCell>
                <mxCell id="213" value="&lt;i&gt;User Data&lt;/i&gt;" style="shape=umlFrame;whiteSpace=wrap;html=1;width=120;height=40;boundedLbl=1;verticalAlign=middle;align=left;spacingLeft=5;fontSize=20;spacing=2;" parent="1" vertex="1">
                    <mxGeometry x="1030" y="270" width="420" height="340" as="geometry"/>
                </mxCell>
                <mxCell id="219" value="" style="group" parent="1" vertex="1" connectable="0">
                    <mxGeometry x="650" y="440" width="280" height="160" as="geometry"/>
                </mxCell>
                <mxCell id="214" value="2FA" style="rounded=1;whiteSpace=wrap;html=1;sketch=0;strokeWidth=1.2;fontSize=16;fillColor=#60a917;fontColor=#ffffff;strokeColor=#2D7600;" parent="219" vertex="1">
                    <mxGeometry x="70" width="130" height="60" as="geometry"/>
                </mxCell>
                <mxCell id="215" value="FIDO2" style="rounded=1;whiteSpace=wrap;html=1;sketch=0;strokeWidth=1.2;fontSize=16;fillColor=#a20025;strokeColor=#6F0000;fontColor=#ffffff;" parent="219" vertex="1">
                    <mxGeometry y="100" width="130" height="60" as="geometry"/>
                </mxCell>
                <mxCell id="218" style="edgeStyle=orthogonalEdgeStyle;html=1;exitX=0.25;exitY=1;exitDx=0;exitDy=0;entryX=0.5;entryY=0;entryDx=0;entryDy=0;fontSize=16;startArrow=none;startFill=0;endArrow=classic;endFill=1;" parent="219" source="214" target="215" edge="1">
                    <mxGeometry relative="1" as="geometry"/>
                </mxCell>
                <mxCell id="216" value="Tan / &lt;b&gt;OTP&lt;/b&gt;" style="rounded=1;whiteSpace=wrap;html=1;sketch=0;strokeWidth=1.2;fontSize=16;fillColor=#60a917;fontColor=#ffffff;strokeColor=#2D7600;" parent="219" vertex="1">
                    <mxGeometry x="150" y="100" width="130" height="60" as="geometry"/>
                </mxCell>
                <mxCell id="217" style="edgeStyle=orthogonalEdgeStyle;html=1;exitX=0.75;exitY=1;exitDx=0;exitDy=0;entryX=0.5;entryY=0;entryDx=0;entryDy=0;fontSize=16;startArrow=none;startFill=0;endArrow=classic;endFill=1;" parent="219" source="214" target="216" edge="1">
                    <mxGeometry relative="1" as="geometry"/>
                </mxCell>
                <mxCell id="234" style="edgeStyle=orthogonalEdgeStyle;html=1;exitX=1;exitY=0.5;exitDx=0;exitDy=0;entryX=0;entryY=0.5;entryDx=0;entryDy=0;fontSize=16;startArrow=none;startFill=0;endArrow=classic;endFill=1;fillColor=#60a917;strokeColor=#2D7600;" parent="1" source="220" target="214" edge="1">
                    <mxGeometry relative="1" as="geometry"/>
                </mxCell>
                <mxCell id="236" value="" style="edgeStyle=orthogonalEdgeStyle;html=1;fontSize=16;startArrow=none;startFill=0;endArrow=classic;endFill=1;" parent="1" source="220" target="235" edge="1">
                    <mxGeometry relative="1" as="geometry"/>
                </mxCell>
                <mxCell id="220" value="Password" style="rounded=1;whiteSpace=wrap;html=1;sketch=0;strokeWidth=1.2;fontSize=16;" parent="1" vertex="1">
                    <mxGeometry x="500" y="440" width="130" height="60" as="geometry"/>
                </mxCell>
                <mxCell id="231" value="" style="group" parent="1" vertex="1" connectable="0">
                    <mxGeometry x="10" y="90" width="550" height="60" as="geometry"/>
                </mxCell>
                <mxCell id="221" value="Feature" style="rounded=1;whiteSpace=wrap;html=1;sketch=0;strokeWidth=1.2;fontSize=16;fillColor=#60a917;fontColor=#ffffff;strokeColor=#2D7600;" parent="231" vertex="1">
                    <mxGeometry x="200" width="130" height="60" as="geometry"/>
                </mxCell>
                <mxCell id="223" value="Advanced Feature" style="rounded=1;whiteSpace=wrap;html=1;sketch=0;strokeWidth=1.2;fontSize=16;fillColor=#a20025;fontColor=#ffffff;strokeColor=#6F0000;" parent="231" vertex="1">
                    <mxGeometry x="400" width="150" height="60" as="geometry"/>
                </mxCell>
                <mxCell id="224" value="" style="edgeStyle=orthogonalEdgeStyle;html=1;fontSize=16;startArrow=none;startFill=0;endArrow=classic;endFill=1;" parent="231" source="221" target="223" edge="1">
                    <mxGeometry relative="1" as="geometry"/>
                </mxCell>
                <mxCell id="226" value="then" style="edgeLabel;html=1;align=center;verticalAlign=middle;resizable=0;points=[];fontSize=16;" parent="224" vertex="1" connectable="0">
                    <mxGeometry x="0.2028" relative="1" as="geometry">
                        <mxPoint x="-10" y="-2" as="offset"/>
                    </mxGeometry>
                </mxCell>
                <mxCell id="229" value="" style="edgeStyle=orthogonalEdgeStyle;html=1;fontSize=16;startArrow=none;startFill=0;endArrow=classic;endFill=1;" parent="231" source="228" target="221" edge="1">
                    <mxGeometry relative="1" as="geometry"/>
                </mxCell>
                <mxCell id="230" value="then" style="edgeLabel;html=1;align=center;verticalAlign=middle;resizable=0;points=[];fontSize=16;" parent="229" vertex="1" connectable="0">
                    <mxGeometry x="-0.2053" y="-2" relative="1" as="geometry">
                        <mxPoint x="6" y="-4" as="offset"/>
                    </mxGeometry>
                </mxCell>
                <mxCell id="228" value="Basis" style="rounded=1;whiteSpace=wrap;html=1;sketch=0;strokeWidth=1.2;fontSize=16;" parent="231" vertex="1">
                    <mxGeometry width="130" height="60" as="geometry"/>
                </mxCell>
                <mxCell id="233" style="edgeStyle=orthogonalEdgeStyle;html=1;exitX=0.5;exitY=1;exitDx=0;exitDy=0;entryX=0.5;entryY=0;entryDx=0;entryDy=0;fontSize=16;startArrow=none;startFill=0;endArrow=classic;endFill=1;" parent="1" source="232" target="220" edge="1">
                    <mxGeometry relative="1" as="geometry"/>
                </mxCell>
                <mxCell id="232" value="Username or E-Mail" style="rounded=1;whiteSpace=wrap;html=1;sketch=0;strokeWidth=1.2;fontSize=16;" parent="1" vertex="1">
                    <mxGeometry x="620" y="320" width="190" height="60" as="geometry"/>
                </mxCell>
                <mxCell id="235" value="JWT-Token / Application Token + Device ID" style="rounded=1;whiteSpace=wrap;html=1;sketch=0;strokeWidth=1.2;fontSize=16;" parent="1" vertex="1">
                    <mxGeometry x="490" y="660" width="150" height="80" as="geometry"/>
                </mxCell>
                <mxCell id="237" style="edgeStyle=orthogonalEdgeStyle;html=1;exitX=0.5;exitY=1;exitDx=0;exitDy=0;entryX=1;entryY=0.25;entryDx=0;entryDy=0;fontSize=16;startArrow=none;startFill=0;endArrow=classic;endFill=1;fillColor=#a20025;strokeColor=#6F0000;" parent="1" source="215" target="235" edge="1">
                    <mxGeometry relative="1" as="geometry"/>
                </mxCell>
                <mxCell id="238" style="edgeStyle=orthogonalEdgeStyle;html=1;exitX=0.5;exitY=1;exitDx=0;exitDy=0;entryX=1;entryY=0.5;entryDx=0;entryDy=0;fontSize=16;startArrow=none;startFill=0;endArrow=classic;endFill=1;fillColor=#60a917;strokeColor=#2D7600;" parent="1" source="216" target="235" edge="1">
                    <mxGeometry relative="1" as="geometry"/>
                </mxCell>
                <mxCell id="240" value="&lt;i&gt;Live Feedback&lt;/i&gt;" style="shape=umlFrame;whiteSpace=wrap;html=1;width=160;height=40;boundedLbl=1;verticalAlign=middle;align=left;spacingLeft=5;fontSize=20;spacing=2;" parent="1" vertex="1">
                    <mxGeometry x="20" y="1510" width="470" height="240" as="geometry"/>
                </mxCell>
                <mxCell id="241" value="QR Code Scanner&lt;br&gt;&lt;span style=&quot;font-size: 9px; background-color: initial;&quot;&gt;&amp;lt;&amp;lt;get EAN Code / Product available&amp;gt;&amp;gt;&lt;/span&gt;" style="rounded=1;whiteSpace=wrap;html=1;sketch=0;strokeWidth=1.2;fontSize=16;" parent="1" vertex="1">
                    <mxGeometry x="40" y="1680" width="180" height="50" as="geometry"/>
                </mxCell>
                <mxCell id="248" value="" style="group" parent="1" vertex="1" connectable="0">
                    <mxGeometry x="40" y="1570" width="440" height="60" as="geometry"/>
                </mxCell>
                <mxCell id="244" value="Feedback: Good / Bad" style="rounded=1;whiteSpace=wrap;html=1;sketch=0;strokeWidth=1.2;fontSize=16;" parent="248" vertex="1">
                    <mxGeometry y="5" width="180" height="50" as="geometry"/>
                </mxCell>
                <mxCell id="245" value="&lt;ul&gt;&lt;li style=&quot;&quot;&gt;Price not right&lt;/li&gt;&lt;li&gt;Product not available&lt;/li&gt;&lt;/ul&gt;" style="rounded=1;whiteSpace=wrap;html=1;sketch=0;strokeWidth=1.2;fontSize=16;align=left;" parent="248" vertex="1">
                    <mxGeometry x="230" width="210" height="60" as="geometry"/>
                </mxCell>
                <mxCell id="246" value="" style="edgeStyle=none;html=1;" parent="248" source="244" target="245" edge="1">
                    <mxGeometry relative="1" as="geometry"/>
                </mxCell>
                <mxCell id="247" value="Bad" style="edgeLabel;html=1;align=center;verticalAlign=middle;resizable=0;points=[];" parent="246" vertex="1" connectable="0">
                    <mxGeometry x="-0.4914" y="1" relative="1" as="geometry">
                        <mxPoint x="8" y="1" as="offset"/>
                    </mxGeometry>
                </mxCell>
                <mxCell id="250" style="edgeStyle=none;html=1;exitX=0.5;exitY=1;exitDx=0;exitDy=0;entryX=0.5;entryY=0;entryDx=0;entryDy=0;" parent="1" source="244" target="241" edge="1">
                    <mxGeometry relative="1" as="geometry"/>
                </mxCell>
                <mxCell id="251" value="Easy Feedback" style="edgeLabel;html=1;align=center;verticalAlign=middle;resizable=0;points=[];" parent="250" vertex="1" connectable="0">
                    <mxGeometry x="-0.2687" y="1" relative="1" as="geometry">
                        <mxPoint x="-1" y="5" as="offset"/>
                    </mxGeometry>
                </mxCell>
                <mxCell id="252" value="&lt;p style=&quot;line-height: 120%;&quot;&gt;&lt;/p&gt;&lt;ul&gt;&lt;li&gt;Username&lt;/li&gt;&lt;li&gt;E-Mail&lt;/li&gt;&lt;li&gt;Password&lt;/li&gt;&lt;li&gt;Optional:&lt;/li&gt;&lt;ul&gt;&lt;li&gt;Firstname&lt;/li&gt;&lt;li&gt;Surname&lt;/li&gt;&lt;li&gt;Address&lt;/li&gt;&lt;li&gt;&lt;font color=&quot;#00ff00&quot;&gt;2FA&lt;/font&gt;&lt;/li&gt;&lt;/ul&gt;&lt;/ul&gt;&lt;p&gt;&lt;/p&gt;" style="rounded=1;whiteSpace=wrap;html=1;sketch=0;strokeWidth=1.2;fontSize=16;align=left;arcSize=0;spacing=-18;" parent="1" vertex="1">
                    <mxGeometry x="20" y="310" width="140" height="220" as="geometry"/>
                </mxCell>
                <mxCell id="253" value="&lt;p style=&quot;line-height: 120%;&quot;&gt;&lt;/p&gt;&lt;ul&gt;&lt;li&gt;Username&lt;/li&gt;&lt;li&gt;E-Mail&lt;/li&gt;&lt;li&gt;Password&lt;/li&gt;&lt;li&gt;&lt;span style=&quot;background-color: initial;&quot;&gt;Firstname&lt;/span&gt;&lt;br&gt;&lt;/li&gt;&lt;li&gt;&lt;span style=&quot;background-color: initial;&quot;&gt;Surname&lt;/span&gt;&lt;br&gt;&lt;/li&gt;&lt;li&gt;&lt;span style=&quot;background-color: initial;&quot;&gt;Address&lt;/span&gt;&lt;br&gt;&lt;/li&gt;&lt;li&gt;&lt;span style=&quot;color: rgb(0, 255, 0); background-color: initial;&quot;&gt;2FA&lt;/span&gt;&lt;br&gt;&lt;/li&gt;&lt;/ul&gt;&lt;p&gt;&lt;/p&gt;" style="rounded=1;whiteSpace=wrap;html=1;sketch=0;strokeWidth=1.2;fontSize=16;align=left;arcSize=0;spacing=-18;" vertex="1" parent="1">
                    <mxGeometry x="20" y="690" width="110" height="190" as="geometry"/>
                </mxCell>
                <mxCell id="274" value="&lt;i&gt;&lt;font style=&quot;font-size: 16px;&quot;&gt;new_data&lt;/font&gt;&lt;/i&gt;" style="shape=umlFrame;whiteSpace=wrap;html=1;width=90;height=30;boundedLbl=1;verticalAlign=middle;align=left;spacingLeft=5;fontSize=20;spacing=2;" vertex="1" parent="1">
                    <mxGeometry x="1060" y="710" width="420" height="340" as="geometry"/>
                </mxCell>
                <mxCell id="275" value="&lt;i&gt;&lt;font style=&quot;font-size: 16px;&quot;&gt;new_shopselect&lt;/font&gt;&lt;/i&gt;" style="shape=umlFrame;whiteSpace=wrap;html=1;width=140;height=30;boundedLbl=1;verticalAlign=middle;align=left;spacingLeft=5;fontSize=20;spacing=2;" vertex="1" parent="1">
                    <mxGeometry x="1520" y="710" width="510" height="340" as="geometry"/>
                </mxCell>
                <mxCell id="303" value="" style="edgeStyle=none;html=1;fontSize=16;fontColor=#FFFFFF;startArrow=classic;startFill=1;endArrow=classic;endFill=1;entryX=0.431;entryY=1.001;entryDx=0;entryDy=0;entryPerimeter=0;" edge="1" parent="1" target="60">
                    <mxGeometry relative="1" as="geometry">
                        <mxPoint x="1398" y="1960" as="sourcePoint"/>
                        <Array as="points">
                            <mxPoint x="1398" y="1910"/>
                        </Array>
                    </mxGeometry>
                </mxCell>
                <mxCell id="304" value="&amp;lt;&amp;lt;use&amp;gt;&amp;gt;" style="edgeLabel;html=1;align=center;verticalAlign=middle;resizable=0;points=[];fontSize=11;fontColor=#FFFFFF;rotation=-90;labelBackgroundColor=none;" vertex="1" connectable="0" parent="303">
                    <mxGeometry x="0.3166" y="-1" relative="1" as="geometry">
                        <mxPoint x="4" y="10" as="offset"/>
                    </mxGeometry>
                </mxCell>
                <mxCell id="279" value="&lt;i&gt;shopselect&lt;/i&gt;" style="shape=umlFrame;whiteSpace=wrap;html=1;width=120;height=50;boundedLbl=1;verticalAlign=middle;align=left;spacingLeft=5;fontSize=20;spacing=2;" vertex="1" parent="1">
                    <mxGeometry x="1040" y="1960" width="690" height="210" as="geometry"/>
                </mxCell>
                <mxCell id="301" value="" style="group" vertex="1" connectable="0" parent="1">
                    <mxGeometry x="1800" y="1300" width="710" height="340" as="geometry"/>
                </mxCell>
                <mxCell id="94" value="&lt;i&gt;Product-Data_Combinder&lt;/i&gt;" style="shape=umlFrame;whiteSpace=wrap;html=1;width=250;height=40;boundedLbl=1;verticalAlign=middle;align=left;spacingLeft=5;fontSize=20;spacing=2;" parent="301" vertex="1">
                    <mxGeometry width="710" height="340" as="geometry"/>
                </mxCell>
                <mxCell id="255" value="Compare products shop by shop with all other shops" style="rounded=1;whiteSpace=wrap;html=1;sketch=0;strokeWidth=1.2;fontSize=16;" vertex="1" parent="301">
                    <mxGeometry x="20" y="60" width="170" height="80" as="geometry"/>
                </mxCell>
                <mxCell id="263" style="edgeStyle=none;html=1;exitX=1;exitY=0.5;exitDx=0;exitDy=0;entryX=0.5;entryY=1;entryDx=0;entryDy=0;fontColor=#FFFFFF;startArrow=none;startFill=0;endArrow=classic;endFill=1;" edge="1" parent="301" source="256" target="255">
                    <mxGeometry relative="1" as="geometry">
                        <Array as="points">
                            <mxPoint x="580" y="100"/>
                            <mxPoint x="580" y="290"/>
                            <mxPoint x="105" y="290"/>
                        </Array>
                    </mxGeometry>
                </mxCell>
                <mxCell id="256" value="Save product in new table for each shop with his price" style="rounded=1;whiteSpace=wrap;html=1;sketch=0;strokeWidth=1.2;fontSize=16;" vertex="1" parent="301">
                    <mxGeometry x="320" y="60" width="230" height="80" as="geometry"/>
                </mxCell>
                <mxCell id="257" value="" style="edgeStyle=none;html=1;fontColor=#00FF00;" edge="1" parent="301" source="255" target="256">
                    <mxGeometry relative="1" as="geometry"/>
                </mxCell>
                <mxCell id="258" value="&lt;font color=&quot;#ffffff&quot;&gt;equals &amp;gt;75%&lt;br&gt;&amp;lt;&amp;lt;product_name&amp;gt;&amp;gt;&lt;/font&gt;" style="edgeLabel;html=1;align=center;verticalAlign=middle;resizable=0;points=[];fontColor=#00FF00;labelBackgroundColor=none;" vertex="1" connectable="0" parent="257">
                    <mxGeometry x="0.1939" y="1" relative="1" as="geometry">
                        <mxPoint x="-17" y="1" as="offset"/>
                    </mxGeometry>
                </mxCell>
                <mxCell id="259" value="Fill empty columns with information from other shops" style="rounded=1;whiteSpace=wrap;html=1;sketch=0;strokeWidth=1.2;fontSize=16;" vertex="1" parent="301">
                    <mxGeometry x="315" y="180" width="240" height="80" as="geometry"/>
                </mxCell>
                <mxCell id="260" value="" style="edgeStyle=none;html=1;fontColor=#FFFFFF;startArrow=classic;startFill=1;" edge="1" parent="301" source="256" target="259">
                    <mxGeometry relative="1" as="geometry"/>
                </mxCell>
                <mxCell id="266" style="edgeStyle=none;html=1;exitX=0.5;exitY=1;exitDx=0;exitDy=0;fontColor=#FFFFFF;startArrow=none;startFill=0;entryX=0.5;entryY=1;entryDx=0;entryDy=0;endArrow=classic;endFill=1;" edge="1" parent="301" source="259" target="255">
                    <mxGeometry relative="1" as="geometry">
                        <mxPoint x="550" y="100" as="sourcePoint"/>
                        <mxPoint x="110" y="150" as="targetPoint"/>
                        <Array as="points">
                            <mxPoint x="435" y="290"/>
                            <mxPoint x="105" y="290"/>
                        </Array>
                    </mxGeometry>
                </mxCell>
                <mxCell id="269" value="until no more stores are left&lt;br&gt;&amp;lt;&amp;lt;repeat&amp;gt;&amp;gt;" style="edgeLabel;html=1;align=center;verticalAlign=middle;resizable=0;points=[];fontColor=#FFFFFF;labelBackgroundColor=none;" vertex="1" connectable="0" parent="266">
                    <mxGeometry x="0.7456" relative="1" as="geometry">
                        <mxPoint x="125" y="85" as="offset"/>
                    </mxGeometry>
                </mxCell>
                <mxCell id="270" value="Search for EAN online" style="rounded=1;whiteSpace=wrap;html=1;labelBackgroundColor=none;fontColor=#ffffff;fillColor=#a20025;strokeColor=#6F0000;fontSize=15;" vertex="1" parent="301">
                    <mxGeometry x="120" y="190" width="170" height="60" as="geometry"/>
                </mxCell>
                <mxCell id="271" value="" style="edgeStyle=none;html=1;fontSize=15;fontColor=#FFFFFF;startArrow=classic;startFill=1;endArrow=classic;endFill=1;" edge="1" parent="301" source="259" target="270">
                    <mxGeometry relative="1" as="geometry"/>
                </mxCell>
                <mxCell id="329" style="edgeStyle=none;html=1;exitX=1;exitY=0.5;exitDx=0;exitDy=0;entryX=0;entryY=0.25;entryDx=0;entryDy=0;fontSize=16;fontColor=#FFFFFF;startArrow=none;startFill=0;endArrow=classic;endFill=1;" edge="1" parent="1" source="308" target="310">
                    <mxGeometry relative="1" as="geometry"/>
                </mxCell>
                <mxCell id="308" value="Get products from shop-ids" style="rounded=1;whiteSpace=wrap;html=1;labelBackgroundColor=none;fontSize=16;fontColor=#FFFFFF;" vertex="1" parent="1">
                    <mxGeometry x="1075" y="2030" width="200" height="50" as="geometry"/>
                </mxCell>
                <mxCell id="330" style="edgeStyle=none;html=1;exitX=0;exitY=0.75;exitDx=0;exitDy=0;entryX=1;entryY=0.5;entryDx=0;entryDy=0;fontSize=16;fontColor=#FFFFFF;startArrow=none;startFill=0;endArrow=classic;endFill=1;" edge="1" parent="1" source="310" target="315">
                    <mxGeometry relative="1" as="geometry"/>
                </mxCell>
                <mxCell id="310" value="Compare, fill and crop products with similar products&amp;nbsp;&lt;br&gt;&amp;lt;&amp;lt;like&amp;nbsp;&lt;i style=&quot;color: rgb(240, 240, 240); text-align: left;&quot;&gt;&lt;font style=&quot;font-size: 16px;&quot;&gt;Product-Data_Combinder&lt;/font&gt;&lt;/i&gt;&amp;gt;&amp;gt;" style="rounded=1;whiteSpace=wrap;html=1;labelBackgroundColor=none;fontSize=16;fontColor=#FFFFFF;" vertex="1" parent="1">
                    <mxGeometry x="1330" y="2045" width="390" height="90" as="geometry"/>
                </mxCell>
                <mxCell id="315" value="&lt;span style=&quot;color: rgb(240, 240, 240);&quot;&gt;Send data to main database&lt;/span&gt;" style="rounded=1;whiteSpace=wrap;html=1;labelBackgroundColor=none;fontSize=16;fontColor=#FFFFFF;" vertex="1" parent="1">
                    <mxGeometry x="1060" y="2100" width="230" height="50" as="geometry"/>
                </mxCell>
                <mxCell id="325" value="" style="edgeStyle=none;html=1;fontSize=16;fontColor=#FFFFFF;startArrow=none;startFill=0;endArrow=classic;endFill=1;" edge="1" parent="1" source="326" target="327">
                    <mxGeometry relative="1" as="geometry"/>
                </mxCell>
                <mxCell id="326" value="Get Shop-IDs per address" style="rounded=1;whiteSpace=wrap;html=1;labelBackgroundColor=none;fontSize=16;fontColor=#FFFFFF;" vertex="1" parent="1">
                    <mxGeometry x="1535" y="760" width="235" height="50" as="geometry"/>
                </mxCell>
                <mxCell id="327" value="Get Shop-IDs per address" style="rounded=1;whiteSpace=wrap;html=1;labelBackgroundColor=none;fontSize=16;fontColor=#FFFFFF;" vertex="1" parent="1">
                    <mxGeometry x="1810" y="760" width="200" height="50" as="geometry"/>
                </mxCell>
                <mxCell id="339" value="" style="group" vertex="1" connectable="0" parent="1">
                    <mxGeometry x="2070" y="710" width="280" height="190" as="geometry"/>
                </mxCell>
                <mxCell id="331" value="&lt;i&gt;&lt;font style=&quot;font-size: 16px;&quot;&gt;delete_shopselect&lt;/font&gt;&lt;/i&gt;" style="shape=umlFrame;whiteSpace=wrap;html=1;width=150;height=30;boundedLbl=1;verticalAlign=middle;align=left;spacingLeft=5;fontSize=20;spacing=2;" vertex="1" parent="339">
                    <mxGeometry width="280" height="190" as="geometry"/>
                </mxCell>
                <mxCell id="338" value="" style="group" vertex="1" connectable="0" parent="339">
                    <mxGeometry x="20" y="50" width="240" height="120" as="geometry"/>
                </mxCell>
                <mxCell id="319" value="delete shop id" style="rounded=1;whiteSpace=wrap;html=1;labelBackgroundColor=none;fontSize=16;fontColor=#FFFFFF;" vertex="1" parent="338">
                    <mxGeometry x="62.5" y="80" width="115" height="40" as="geometry"/>
                </mxCell>
                <mxCell id="340" value="" style="edgeStyle=none;html=1;fontSize=16;fontColor=#FFFFFF;startArrow=none;startFill=0;endArrow=classic;endFill=1;" edge="1" parent="338" source="332" target="319">
                    <mxGeometry relative="1" as="geometry"/>
                </mxCell>
                <mxCell id="332" value="delete products by shop id / remove shop id from product" style="rounded=1;whiteSpace=wrap;html=1;labelBackgroundColor=none;fontSize=16;fontColor=#FFFFFF;" vertex="1" parent="338">
                    <mxGeometry width="240" height="60" as="geometry"/>
                </mxCell>
            </root>
        </mxGraphModel>
    </diagram>
</mxfile>